<svg xmlns="http://www.w3.org/2000/svg" width="34.908" height="34.909" viewBox="0 0 34.908 34.909">
  <g id="单击" transform="translate(2149.678 -472.916)">
    <circle id="Ellipse_33" data-name="Ellipse 33" cx="10.477" cy="10.477" r="10.477" transform="translate(-2142.7 479.894)" fill="#fff"/>
    <path id="Path_3284" data-name="Path 3284" d="M-2132.224,472.916a17.453,17.453,0,0,0-17.454,17.454,17.454,17.454,0,0,0,17.454,17.455,17.455,17.455,0,0,0,17.455-17.455A17.454,17.454,0,0,0-2132.224,472.916Zm0,33.435a15.981,15.981,0,0,1-15.98-15.981,15.98,15.98,0,0,1,15.98-15.98,15.979,15.979,0,0,1,15.98,15.98A15.98,15.98,0,0,1-2132.224,506.351Z" fill="#fff" opacity="0.5"/>
  </g>
</svg>
