<?xml version="1.0" encoding="UTF-8"?>
<svg width="56px" height="56px" viewBox="0 0 56 56" version="1.1" xmlns="http://www.w3.org/2000/svg" xmlns:xlink="http://www.w3.org/1999/xlink">
    <title>rotate</title>
    <g id="页面-1" stroke="none" stroke-width="1" fill="none" fill-rule="evenodd">
        <g id="一级icon白色" transform="translate(-108.000000, -134.000000)">
            <g id="rotate" transform="translate(108.000000, 134.000000)">
                <rect id="矩形备份-6" fill="#383B3C" opacity="0" x="0" y="0" width="56" height="56" rx="3"></rect>
                <g id="翻转_左" transform="translate(41.000000, 41.000227)" fill="#C3C4C4" fill-rule="nonzero">
                    <path d="M7.068,3.97577134 L0.404000004,3.97577134 C0.296944601,3.97550693 0.194182884,4.01784843 0.118389303,4.09345441 C0.0425957215,4.16906038 0,4.27171684 0,4.37877258 L0,9.59627258 C0,9.81977258 0.180500004,9.99977258 0.404000004,9.99977258 L7.068,9.99977258 C7.2915,9.99977258 7.472,9.81977258 7.472,9.59627258 L7.472,4.37877258 C7.472,4.27171684 7.42940428,4.16906038 7.3536107,4.09345441 C7.27781712,4.01784843 7.1750554,3.97550693 7.068,3.97577134 L7.068,3.97577134 Z M6.513,9.04177257 L0.9585,9.04177257 L0.9585,4.93327257 L6.512,4.93327257 L6.512,9.04177257 L6.513,9.04177257 Z M8.927,2.84777258 C7.97105803,1.62596522 6.50782474,0.909734542 4.9565,0.904272573 L4.95400001,0.0977725764 C4.95372281,0.0602776806 4.93218153,0.0261920519 4.8984346,0.00984919872 C4.86468767,-0.00649365445 4.82458874,-0.00225894381 4.79500001,0.0207725725 L3.17950001,1.29377258 C3.15587135,1.31255402 3.14210155,1.34108887 3.14210155,1.37127258 C3.14210155,1.40145628 3.15587135,1.42999113 3.17950001,1.44877257 L4.796,2.72277258 C4.86100001,2.77327257 4.956,2.72777258 4.955,2.64627258 L4.955,1.84077258 C5.118,1.84177257 5.282,1.85227257 5.445,1.87227258 C5.97241921,1.9363937 6.48245494,2.10193459 6.947,2.35977258 C7.42765501,2.62765265 7.84992486,2.98889397 8.189,3.42227258 C8.86276925,4.28049431 9.1668556,5.37178646 9.03400001,6.45477258 C9.02550001,6.52277258 9.017,6.59077257 9.00400001,6.65727258 L9.95,6.65727258 C10.1437053,5.30093183 9.77427548,3.92437669 8.92750001,2.84727258 L8.927,2.84777258 Z" id="形状"></path>
                </g>
                <path d="M34.8587633,31.6736361 C35.152437,33.1275183 35.4115609,34.4433737 35.636135,35.6212023 C35.7397846,36.1180987 35.8347967,36.6149951 35.9211713,37.1118916 C36.007546,37.608788 36.0896019,38.0596755 36.167339,38.4645541 C36.2450762,38.8694327 36.3098572,39.2144997 36.361682,39.499755 C36.4135067,39.7850104 36.4480566,39.9644452 36.4653315,40.0380595 C36.5171563,40.4061309 36.4394191,40.6499782 36.23212,40.7696014 C36.0248209,40.8892247 35.7916093,40.9490363 35.5324854,40.9490363 C35.4461108,40.9490363 35.3208675,40.91683 35.1567557,40.8524175 C34.9926439,40.788005 34.8674007,40.7373952 34.7810261,40.700588 L28.0178919,36.5045737 C26.791372,37.2775237 25.6771392,37.9676576 24.6751934,38.5749755 C24.2433202,38.8326255 23.8157658,39.0902755 23.39253,39.3479255 C22.9692943,39.6055756 22.5849272,39.844822 22.2394286,40.0656648 C21.8939301,40.2865077 21.5959376,40.4705434 21.3454511,40.617772 C21.0949647,40.7650006 20.9265341,40.8570184 20.8401595,40.8938255 C20.6674102,40.9858434 20.4903422,41.0180497 20.3089555,40.9904443 C20.1275687,40.9628389 19.9634569,40.8938255 19.81662,40.7834041 C19.6697831,40.6729827 19.5618148,40.5395568 19.4927151,40.3831264 C19.4236154,40.226696 19.4063405,40.0656648 19.4408903,39.9000327 C19.4581653,39.8264184 19.5013526,39.6469836 19.5704523,39.3617282 C19.639552,39.0764728 19.7172892,38.7360067 19.8036638,38.3403299 C19.8900385,37.9446532 19.9893693,37.5075683 20.1016563,37.0290755 C20.2139434,36.5505826 20.3305491,36.0628879 20.4514736,35.5659915 C20.7105975,34.42497 21.0042713,33.13672 21.3324949,31.7012414 C20.3132742,30.7626593 19.397703,29.9252967 18.5857814,29.1891539 C18.2402829,28.8762932 17.8991031,28.5680333 17.562242,28.2643744 C17.2253809,27.9607154 16.9230696,27.6846619 16.6553083,27.4362136 C16.3875469,27.1877654 16.1672916,26.9853261 15.9945423,26.8288958 C15.821793,26.6724654 15.7267809,26.5850484 15.709506,26.5666449 C15.5022068,26.3642056 15.3251388,26.1387618 15.1783019,25.8903136 C15.031465,25.6418654 14.9753215,25.3888163 15.0098714,25.1311663 C15.0444213,24.8735162 15.1394334,24.671077 15.2949077,24.5238484 C15.4503821,24.3766198 15.6231313,24.284602 15.8131555,24.2477948 L23.8200845,23.4748448 L26.8000095,16.076609 C26.903659,15.7821518 27.0504959,15.5291027 27.2405201,15.3174616 C27.4305443,15.1058205 27.6896682,15 28.0178919,15 C28.1906411,15 28.3417968,15.041408 28.4713587,15.1242241 C28.6009207,15.2070402 28.708889,15.3036589 28.7952636,15.4140803 C28.8816383,15.5245018 28.9550567,15.6349232 29.015519,15.7453446 C29.0759812,15.8557661 29.1234873,15.9477839 29.1580371,16.0213982 L32.060225,23.4196341 L40.0671539,24.2201894 C40.4126524,24.3122073 40.6545014,24.4226287 40.7927009,24.5514537 C40.9309003,24.6802787 41,24.882718 41,25.1587716 C41,25.4164216 40.9265816,25.6418653 40.7797447,25.8351029 C40.6329078,26.0283404 40.4472023,26.2629859 40.2226282,26.5390395 L34.8587633,31.6736361 Z" id="路径" fill="#FFFFFF" fill-rule="nonzero" opacity="0.098804"></path>
                <path d="M28.5234204,33.0733226 C28.7493233,34.1916935 28.9486494,35.20389 29.1213987,36.109912 C29.2011292,36.49214 29.2742154,36.874368 29.3406574,37.2565961 C29.4070995,37.6388241 29.4702194,37.9856606 29.5300172,38.2971057 C29.589815,38.6085508 29.6396465,38.8739869 29.6795118,39.0934141 C29.719377,39.3128413 29.7459538,39.4508681 29.7592422,39.5074945 C29.7991074,39.7906263 29.7393096,39.9782012 29.5798487,40.0702191 C29.4203878,40.1622369 29.2409944,40.2082458 29.0416683,40.2082458 C28.9752262,40.2082458 28.8788853,40.1834718 28.7526454,40.1339237 C28.6264056,40.0843757 28.5300646,40.045445 28.4636226,40.0171318 L23.2612117,36.7894285 C22.3177349,37.3840054 21.4606327,37.9148777 20.6899052,38.3820453 C20.357695,38.5802376 20.028807,38.7784299 19.703241,38.9766222 C19.3776751,39.1748145 19.0820081,39.3588502 18.81624,39.5287294 C18.5504718,39.6986085 18.3212468,39.8401744 18.128565,39.9534272 C17.9358831,40.0666799 17.8063211,40.1374629 17.7398791,40.1657761 C17.606995,40.236559 17.4707889,40.2613331 17.3312606,40.2400982 C17.1917323,40.2188633 17.0654925,40.165776 16.952541,40.0808365 C16.8395896,39.995897 16.7565371,39.8932616 16.7033834,39.7729306 C16.6502298,39.6525995 16.6369414,39.5287293 16.6635182,39.40132 C16.6768066,39.3446936 16.7100276,39.2066668 16.7631813,38.9872396 C16.8163349,38.7678124 16.8761327,38.5059154 16.9425747,38.2015487 C17.0090168,37.8971819 17.0854251,37.5609628 17.1717997,37.1928914 C17.2581744,36.8248199 17.3478711,36.4496702 17.44089,36.0674422 C17.640216,35.1897334 17.8661189,34.1987718 18.1185987,33.0945575 C17.3345827,32.3725712 16.6302972,31.7284462 16.0057421,31.1621825 C15.739974,30.9215204 15.477528,30.6843974 15.2184041,30.4508136 C14.9592801,30.2172298 14.726733,30.0048809 14.5207628,29.8137669 C14.3147925,29.6226529 14.1453653,29.4669304 14.0124812,29.3465993 C13.8795972,29.2262683 13.8065109,29.1590244 13.7932225,29.1448678 C13.6337617,28.9891453 13.4975555,28.815727 13.384604,28.624613 C13.2716526,28.433499 13.2284653,28.2388459 13.2550421,28.0406535 C13.2816189,27.8424612 13.3547051,27.6867387 13.4743008,27.5734859 C13.5938965,27.4602332 13.7267805,27.3894502 13.872953,27.361137 L20.0321291,26.7665601 L22.3243791,21.0756095 C22.4041095,20.849104 22.517061,20.6544508 22.6632334,20.49165 C22.8094059,20.3288491 23.008732,20.2474487 23.2612117,20.2474487 C23.3940957,20.2474487 23.5103693,20.279301 23.6100324,20.3430057 C23.7096954,20.4067104 23.7927479,20.4810325 23.85919,20.5659721 C23.925632,20.6509116 23.9821077,20.7358512 24.0286171,20.8207907 C24.0751266,20.9057303 24.1116697,20.9765133 24.1382465,21.0331396 L26.3706987,26.7240903 L32.5298748,27.3399021 C32.7956429,27.4106851 32.9816806,27.4956247 33.0879878,27.5947208 C33.1942951,27.693817 33.2474487,27.8495395 33.2474487,28.0618884 C33.2474487,28.2600807 33.190973,28.433499 33.0780215,28.5821432 C32.9650701,28.7307875 32.8222197,28.911284 32.6494704,29.1236329 L28.5234204,33.0733226 Z" id="路径" fill="#C3C4C4" fill-rule="nonzero" transform="translate(23.247449, 30.247449) rotate(-15.000000) translate(-23.247449, -30.247449) "></path>
            </g>
        </g>
    </g>
</svg>