<svg xmlns="http://www.w3.org/2000/svg" width="51.68" height="18.142" viewBox="0 0 51.68 18.142">
  <g id="选择选项" transform="translate(2266.408 -482.301)">
    <g id="Group_1035" data-name="Group 1035">
      <path id="Path_3279" data-name="Path 3279" d="M-2245.572,482.3h-17.7a3.134,3.134,0,0,0-3.134,3.134v11.844a3.133,3.133,0,0,0,3.134,3.133h17.7a3.134,3.134,0,0,0,3.134-3.133V485.435A3.134,3.134,0,0,0-2245.572,482.3Zm-6.405,13.646-.636-1.995h-3.628l-.629,1.995h-1.586l2.9-9.211h2.257l2.905,9.211Z" fill="#fff"/>
      <path id="Path_3280" data-name="Path 3280" d="M-2254.438,488.228l-1.349,4.284h2.716Z" fill="#fff"/>
    </g>
    <g id="Group_1036" data-name="Group 1036" opacity="0.5">
      <path id="Path_3281" data-name="Path 3281" d="M-2225.626,490.316a1,1,0,0,0,.416-.377,1.153,1.153,0,0,0,.153-.614,1.109,1.109,0,0,0-.307-.8,1.132,1.132,0,0,0-.857-.319h-2.072v2.238h2.072A1.33,1.33,0,0,0-2225.626,490.316Z" fill="#fff"/>
      <path id="Path_3282" data-name="Path 3282" d="M-2225.242,492.059a1.461,1.461,0,0,0-.736-.176h-2.315v2.642h2.27a1.563,1.563,0,0,0,.723-.163,1.231,1.231,0,0,0,.5-.46,1.323,1.323,0,0,0,.182-.707,1.377,1.377,0,0,0-.159-.665A1.2,1.2,0,0,0-2225.242,492.059Z" fill="#fff"/>
      <path id="Path_3283" data-name="Path 3283" d="M-2217.862,482.331h-17.7a3.134,3.134,0,0,0-3.134,3.134v11.844a3.134,3.134,0,0,0,3.134,3.134h17.7a3.134,3.134,0,0,0,3.134-3.134V485.465A3.134,3.134,0,0,0-2217.862,482.331Zm-5.512,12.341a2.258,2.258,0,0,1-.932.96,3.086,3.086,0,0,1-1.525.345h-4.023v-9.211h3.652a2.844,2.844,0,0,1,1.532.375,2.367,2.367,0,0,1,.889.956,2.657,2.657,0,0,1,.291,1.2,2.243,2.243,0,0,1-.361,1.293,1.768,1.768,0,0,1-.564.527,2.022,2.022,0,0,1,.9.694,2.385,2.385,0,0,1,.451,1.427A3.121,3.121,0,0,1-2223.374,494.672Z" fill="#fff"/>
    </g>
  </g>
</svg>
