<svg xmlns="http://www.w3.org/2000/svg" width="34.398" height="34.398" viewBox="0 0 34.398 34.398">
  <g id="拖动" transform="translate(2042.947 -559.261)">
    <g id="Group_1043" data-name="Group 1043">
      <circle id="Ellipse_39" data-name="Ellipse 39" cx="6.102" cy="6.102" r="6.102" transform="translate(-2021.253 559.761)" fill="none" stroke="#fff" stroke-miterlimit="10" stroke-width="1"/>
      <circle id="Ellipse_40" data-name="Ellipse 40" cx="5.071" cy="5.071" r="5.071" transform="translate(-2020.222 560.792)" fill="#fff" opacity="0.5"/>
    </g>
    <circle id="Ellipse_41" data-name="Ellipse 41" cx="5.071" cy="5.071" r="5.071" transform="translate(-2042.947 583.518)" fill="#fff"/>
    <g id="Group_1044" data-name="Group 1044">
      <rect id="Rectangle_4530" data-name="Rectangle 4530" width="2.432" height="0.754" rx="0.345" transform="translate(-2035.576 585.754) rotate(-45)" fill="#fff"/>
      <rect id="Rectangle_4531" data-name="Rectangle 4531" width="2.432" height="0.754" rx="0.345" transform="translate(-2033.079 583.257) rotate(-45)" fill="#fff"/>
      <rect id="Rectangle_4532" data-name="Rectangle 4532" width="2.432" height="0.754" rx="0.345" transform="translate(-2030.582 580.76) rotate(-45)" fill="#fff"/>
      <rect id="Rectangle_4533" data-name="Rectangle 4533" width="2.432" height="0.754" rx="0.345" transform="translate(-2028.084 578.262) rotate(-45)" fill="#fff"/>
      <rect id="Rectangle_4534" data-name="Rectangle 4534" width="2.432" height="0.754" rx="0.345" transform="translate(-2025.587 575.765) rotate(-45)" fill="#fff"/>
      <rect id="Rectangle_4535" data-name="Rectangle 4535" width="2.432" height="0.754" rx="0.345" transform="translate(-2023.09 573.268) rotate(-45)" fill="#fff"/>
      <rect id="Rectangle_4536" data-name="Rectangle 4536" width="2.432" height="0.754" rx="0.345" transform="translate(-2020.592 570.77) rotate(-45)" fill="#fff"/>
      <rect id="Rectangle_4537" data-name="Rectangle 4537" width="2.432" height="0.754" rx="0.345" transform="translate(-2018.095 568.273) rotate(-45)" fill="#fff"/>
      <path id="Path_3297" data-name="Path 3297" d="M-2015.66,566.275l-1.952-.523a.137.137,0,0,0-.131.035l-.587.587,2.028.544a.135.135,0,0,1,.095.1l.544,2.028.587-.588a.132.132,0,0,0,.035-.131l-.523-1.952A.135.135,0,0,0-2015.66,566.275Z" fill="#fff"/>
    </g>
  </g>
</svg>
