<svg xmlns="http://www.w3.org/2000/svg" width="40.85" height="33.658" viewBox="0 0 40.85 33.658">
  <g id="单选题" transform="translate(2046.424 -906.074)">
    <g id="Group_1069" data-name="Group 1069">
      <path id="Path_3335" data-name="Path 3335" d="M-2036.19,906.074h-8.7a1.539,1.539,0,0,0-1.539,1.539v5.817a1.539,1.539,0,0,0,1.539,1.539h8.7a1.539,1.539,0,0,0,1.539-1.539v-5.817A1.539,1.539,0,0,0-2036.19,906.074Zm-3.146,6.7-.313-.98h-1.781l-.309.98h-.779l1.426-4.524h1.109l1.426,4.524Z" fill="#fff"/>
      <path id="Path_3336" data-name="Path 3336" d="M-2040.545,908.985l-.663,2.1h1.334Z" fill="#fff"/>
    </g>
    <g id="Group_1070" data-name="Group 1070" opacity="0.5">
      <path id="Path_3337" data-name="Path 3337" d="M-2040,922.329a.491.491,0,0,0,.205-.186.565.565,0,0,0,.075-.3.544.544,0,0,0-.151-.393.554.554,0,0,0-.421-.157h-1.018v1.1h1.018A.655.655,0,0,0-2040,922.329Z" fill="#fff"/>
      <path id="Path_3338" data-name="Path 3338" d="M-2039.815,923.185a.714.714,0,0,0-.362-.087h-1.137v1.3h1.116a.771.771,0,0,0,.354-.08.608.608,0,0,0,.247-.227.647.647,0,0,0,.09-.347.663.663,0,0,0-.079-.326A.577.577,0,0,0-2039.815,923.185Z" fill="#fff"/>
      <path id="Path_3339" data-name="Path 3339" d="M-2036.19,918.407h-8.7a1.539,1.539,0,0,0-1.539,1.539v5.817a1.539,1.539,0,0,0,1.539,1.539h8.7a1.539,1.539,0,0,0,1.539-1.539v-5.817A1.539,1.539,0,0,0-2036.19,918.407Zm-2.708,6.061a1.11,1.11,0,0,1-.457.471,1.517,1.517,0,0,1-.749.17h-1.976v-4.524h1.794a1.394,1.394,0,0,1,.752.184,1.163,1.163,0,0,1,.437.47,1.3,1.3,0,0,1,.142.59,1.106,1.106,0,0,1-.177.635.866.866,0,0,1-.277.259.978.978,0,0,1,.443.341,1.165,1.165,0,0,1,.222.7A1.526,1.526,0,0,1-2038.9,924.468Z" fill="#fff"/>
    </g>
    <path id="Path_3340" data-name="Path 3340" d="M-2036.186,930.837h-8.7a1.534,1.534,0,0,0-1.534,1.535V938.2a1.534,1.534,0,0,0,1.534,1.534h8.7a1.534,1.534,0,0,0,1.535-1.534v-5.826A1.535,1.535,0,0,0-2036.186,930.837Zm-5.345,5.316a1.254,1.254,0,0,0,.463.582,1.362,1.362,0,0,0,.77.206,1.3,1.3,0,0,0,.834-.254,1.36,1.36,0,0,0,.456-.7l.773.214a2.086,2.086,0,0,1-.741,1.068,2.145,2.145,0,0,1-1.322.4,2.2,2.2,0,0,1-1.177-.3,1.976,1.976,0,0,1-.753-.838,2.818,2.818,0,0,1-.263-1.249,2.809,2.809,0,0,1,.263-1.247,1.978,1.978,0,0,1,.753-.839,2.212,2.212,0,0,1,1.177-.3,2.139,2.139,0,0,1,1.322.4,2.082,2.082,0,0,1,.741,1.068l-.773.213a1.355,1.355,0,0,0-.456-.7,1.306,1.306,0,0,0-.834-.253,1.346,1.346,0,0,0-.768.207,1.255,1.255,0,0,0-.462.581,2.323,2.323,0,0,0-.157.876A2.283,2.283,0,0,0-2041.531,936.153Z" fill="#fff" opacity="0.5"/>
    <rect id="Rectangle_4557" data-name="Rectangle 4557" width="25.923" height="3.436" rx="1.569" transform="translate(-2031.495 908.804)" fill="#fff"/>
    <rect id="Rectangle_4558" data-name="Rectangle 4558" width="25.923" height="3.436" rx="1.569" transform="translate(-2031.495 921.38)" fill="#fff" opacity="0.5"/>
    <rect id="Rectangle_4559" data-name="Rectangle 4559" width="25.923" height="3.436" rx="1.569" transform="translate(-2031.495 933.567)" fill="#fff" opacity="0.5"/>
  </g>
</svg>
