<?xml version="1.0" encoding="UTF-8"?>
<svg width="36px" height="36px" viewBox="0 0 36 36" version="1.1" xmlns="http://www.w3.org/2000/svg"
    xmlns:xlink="http://www.w3.org/1999/xlink">
    <title>编组 14</title>
    <g id="页面-1" stroke="none" stroke-width="1" fill="none" fill-rule="evenodd">
        <g id="4.4个人工作台/我的作品/分发详情备份" transform="translate(-1095.000000, -246.000000)">
            <g id="编组-14" transform="translate(1095.000000, 246.000000)">
                <rect id="矩形" fill="#1890FF" x="0" y="0" width="36" height="36"></rect>
                <g id="关--闭" transform="translate(10.000000, 10.000000)" fill="#FFFFFF" fill-rule="nonzero">
                    <path
                        d="M9.23172802,8.0009777 L15.741273,1.49085292 L15.741273,1.49085293 C16.070382,1.15922664 16.070382,0.62422136 15.741273,0.292595069 L15.7055674,0.256889397 L15.7055674,0.256889395 C15.3738283,-0.0721278219 14.8388553,-0.0721278219 14.5071162,0.2568894 L7.9971686,6.77522794 L1.48704381,0.254151482 L1.48704384,0.25415151 C1.15537567,-0.0748512121 0.620454137,-0.0748512121 0.288785972,0.254151453 L0.2530803,0.289857125 L0.253080296,0.289857128 C-0.0778679576,0.611892654 -0.0850912295,1.14124011 0.236943652,1.47218836 C0.242248867,1.4776404 0.247628264,1.48301979 0.253080296,1.48832501 L6.76320508,8.00097834 L0.253080296,14.5111031 L0.253080202,14.5111032 C-0.0759337932,14.8427746 -0.0759337932,15.3777058 0.25308039,15.7093772 L0.288786062,15.7450829 L0.288786089,15.7450829 C0.62041238,16.0741919 1.15541766,16.0741919 1.48704395,15.7450828 L7.99716874,9.23495805 L14.5072935,15.7450828 L14.5072935,15.7450828 C14.8389874,16.074224 15.3740668,16.074224 15.7057607,15.7450829 L15.7414664,15.7093772 L15.7414664,15.7093772 C16.0705754,15.3777509 16.0705754,14.8427457 15.7414664,14.5111194 L9.23172802,8.0009777 Z"
                        id="路径"></path>
                </g>
            </g>
        </g>
    </g>
</svg>